<svg xmlns="http://www.w3.org/2000/svg" xmlns:xlink="http://www.w3.org/1999/xlink" version="1.1" x="0px" y="0px" viewBox="0 0 612 792" style="enable-background:new 0 0 612 792;" xml:space="preserve">
<style type="text/css">
	.st0{display:none;}
	.st1{fill:#7AC143;}
	.st2{font-family:'Onyx';}
	.st3{font-size:60px;}
	.st4{letter-spacing:7;}
	.st5{display:none;fill:#30B9A8;}
	.st6{fill:#FFE5BB;}
	.st7{opacity:0.36;fill:#D3C2BE;}
	.st8{fill:#2D1B12;}
	.st9{fill:#B79363;}
	.st10{fill:#F68824;}
	.st11{fill:#F26F24;}
	.st12{font-family:'MyriadPro-Bold';}
	.st13{font-size:72px;}
	.st14{fill:#F89C6E;}
	.st15{fill:#D8C0B6;}
	.st16{fill:none;stroke:#000000;stroke-width:0.75;stroke-miterlimit:10;}
</style>


<g id="Layer_2">
	
	<path class="st6" d="M262.4,416.1c-2.7,2.5-4.3,6-4.5,9.7c-0.4,10.1-3.7,31.6-23.5,35.6c0,0-36.4,1.4-24,72.7c0.4,2,1.1,4,2.4,5.7   c4.8,6.8,19.3,23.8,44.4,27.1c5,0.7,10-1.5,13.1-5.5l59-79.4c5.4-7.3,2.5-17.7-5.9-21.3c-12.7-5.4-27.6-17.4-28.9-43.7   C293.1,390.7,271.8,407.3,262.4,416.1z"/>
	<path class="st7" d="M255,441.9c0,0,21.4,17.4,42.7,3.9c0,0-19.3,25.7-46.3,4.3C251.4,450.1,253.6,447,255,441.9z"/>
	<path class="st6" d="M132,294.6c-40.7-73.4,68-145.4,152-145.4s180.3,86.5,138.1,152.1c-85.8,133.4-136.7,143.9-144.5,144.5   C255.6,447.3,199.4,416,132,294.6z"/>
	<path class="st6" d="M176.5,353c10.1,17.4,11.5,35.4,3.2,40.2c-8.3,4.8-14.8-17.3-33.2-22.9c-19.2-5.8-11.2-34.9-3.2-40.2   C159.9,319.1,166.5,335.6,176.5,353z"/>
	<path class="st6" d="M377.3,353c-10.1,17.4-11.5,35.4-3.2,40.2c8.3,4.8,14.8-17.3,33.2-22.9c19.2-5.8,11.2-34.9,3.2-40.2   C393.9,319.1,387.3,335.6,377.3,353z"/>
	<path class="st8" d="M173.3,360.2c0,0-59-230.1,104.2-140.6v-76.8C277.6,142.8,11.8,175.3,173.3,360.2z"/>
	<path class="st8" d="M381.8,360.2c0,0,59-230.1-104.2-140.6v-76.8C277.6,142.8,546,177,381.8,360.2z"/>
	<g>
		<path d="M196.5,340.3c3.6,0.5,6.9,0.9,10.2,1.3c3.3,0.4,6.5,0.6,9.7,0.7c1.6,0.1,3.2,0,4.8,0c0.8,0,1.6-0.1,2.4-0.2l1.2-0.1    l1.2-0.2c3.3-0.2,6.4-1.1,10.1-1.6c-2.4,2.7-5.5,4.9-8.9,6.2l-1.3,0.5c-0.4,0.1-0.9,0.2-1.3,0.4c-0.9,0.2-1.8,0.5-2.7,0.6    c-0.9,0.1-1.8,0.2-2.8,0.3c-0.9,0.1-1.8,0-2.8,0.1c-3.7-0.1-7.3-0.8-10.7-2.1C202.2,344.8,199,343,196.5,340.3z"/>
	</g>
	<g>
		<path class="st9" d="M265.5,382.6c1.9,0.3,3.7,0.6,5.5,0.8c1.8,0.2,3.6,0.4,5.3,0.4c1.8,0.1,3.5,0,5.2-0.3c1.8-0.2,3.5-0.6,5.5-1    c-1.3,1.4-3,2.6-4.9,3.3c-1.9,0.7-3.9,1-5.9,1c-2,0-4-0.4-5.8-1.1C268.6,385,266.9,384,265.5,382.6z"/>
	</g>
	<g>
		<path d="M312,337.8c3.6,0.5,6.9,0.9,10.2,1.3c3.3,0.4,6.5,0.6,9.7,0.7c1.6,0.1,3.2,0,4.8,0c0.8,0,1.6-0.1,2.4-0.2l1.2-0.1l1.2-0.2    c3.3-0.2,6.4-1.1,10.1-1.6c-2.4,2.7-5.5,4.9-8.9,6.2l-1.3,0.5c-0.4,0.1-0.9,0.2-1.3,0.4c-0.9,0.2-1.8,0.5-2.7,0.6    c-0.9,0.1-1.8,0.2-2.8,0.3c-0.9,0.1-1.8,0-2.8,0.1c-3.7-0.1-7.3-0.8-10.7-2.1C317.7,342.3,314.5,340.5,312,337.8z"/>
	</g>
	<path class="st10" d="M229.5,491c0,0,70.5-45,79-42.7c0,0,28.8,7.8,36.7,19.8l-2.3,3.7c0,0,9.2,5,8.7,7.3l-4,4.8   c0,0-58.7,57.5-84.3,66c0,0-17,2.2-31.7-15C231.5,535,235.8,525.8,229.5,491z"/>
	<path class="st1" d="M231,500.3c0,0-10.2,16.9,0.5,34.7C231.5,535,236.4,522.6,231,500.3z"/>
	<path class="st11" d="M341,464.3l4.2,3.3c0,0-24.5,43.8-79.8,81.7C265.3,549.3,318.3,507.7,341,464.3z"/>
	
	
	
	<g>
		<path class="st14" d="M258,389.7c3.3,2,6.5,3.5,9.7,4.5c3.2,1,6.4,1.4,9.7,1.2c1.6-0.1,3.2-0.3,4.9-0.6c1.6-0.4,3.3-0.8,4.9-1.3    c3.3-1,6.7-2.5,10.3-3.8c-2.1,3.3-5,6-8.3,8.1l-1.3,0.8c-0.4,0.2-0.9,0.4-1.3,0.7c-0.9,0.5-1.9,0.8-2.8,1.1c-1.9,0.6-4,1-6.1,1.1    c-4.2,0.2-8.4-0.8-11.9-2.9C262.3,396.4,259.4,393.4,258,389.7z"/>
	</g>
	<path class="st15" d="M338.5,426.5"/>
	<path class="st8" d="M381.8,360.2c0,0-56.2,93-104.8,94.2l-0.2-41c0,0,26.6,20,26.2-6c0,0,4.9-20-26.7-13.5c0,0,30.3-25,29,13.5   C305.3,407.3,308.3,448.3,381.8,360.2z"/>
	<path class="st8" d="M173.3,360.3c0,0,55.1,92.8,103.7,94l-0.2-40.9c0,0-26.6,20-26.2-6c0,0-4.9-20,26.7-13.5c0,0-30.3-25-29,13.5   C248.3,407.5,246.9,448.5,173.3,360.3z"/>
	<circle cx="377.7" cy="384" r="3.3"/>
	<g>
		<g>
			<path d="M207.4,500.2c5.2,6.3,14.5,7.2,22,5.7c0.8-0.2,0.5-1.4-0.3-1.2c-7,1.4-15.9,0.6-20.7-5.4     C207.7,498.7,206.9,499.6,207.4,500.2L207.4,500.2z"/>
		</g>
	</g>
	
</g>
</svg>
